<!--?xml version="1.0" encoding="UTF-8" standalone="no"?-->
<!-- Generator: Adobe Illustrator 16.0.0, SVG Export Plug-In . SVG Version: 6.00 Build 0)  -->

<svg version="1.1" id="Layer_1" x="0px" y="0px" width="100%" height="100%" viewBox="0 0 570 518.73" enable-background="new 0 0 570 518.73" xml:space="preserve" sodipodi:docname="Zanjan.svg" inkscape:version="1.1.1 (3bf5ae0d25, 2021-09-20)" xmlns:inkscape="http://www.inkscape.org/namespaces/inkscape" xmlns:sodipodi="http://sodipodi.sourceforge.net/DTD/sodipodi-0.dtd" xmlns="http://www.w3.org/2000/svg" xmlns:svg="http://www.w3.org/2000/svg"><defs id="defs171">
	
	
	
	
	
	
	
	
	
	
		

		
		
		
		
		
		
		
		
	</defs><sodipodi:namedview id="namedview169" pagecolor="#ffffff" bordercolor="#666666" borderopacity="1.0" inkscape:pageshadow="2" inkscape:pageopacity="0.0" inkscape:pagecheckerboard="0" showgrid="false" inkscape:zoom="1.0525707" inkscape:cx="389.99754" inkscape:cy="247.4893" inkscape:window-width="1366" inkscape:window-height="705" inkscape:window-x="-8" inkscape:window-y="-8" inkscape:window-maximized="1" inkscape:current-layer="Layer_1"></sodipodi:namedview>
<path fill="#fbd1d1" stroke="#020202" stroke-width="0.2" stroke-miterlimit="10" d="m 340.271,84.815 c -2.122,3.525 -9.88,2.82 -10.586,5.645 -4.24,9.88 -11.293,18.337 -9.881,29.629 2.119,11.291 16.223,4.24 24.694,5.65 7.052,0.698 10.583,8.465 16.929,11.992 9.169,6.35 20.457,-2.115 30.334,3.525 2.102,1.411 3.509,3.529 3.509,4.942 0,9.875 0.728,19.752 9.897,22.572 4.933,1.411 10.582,2.82 12.695,7.055 1.409,2.825 0.702,6.346 -1.411,9.175 -0.702,1.411 -0.702,4.237 0,4.938 6.37,5.645 13.4,-2.82 19.756,-0.701 5.386,1.341 6.922,7.826 11.354,11.479 3.416,-7.664 7.849,-20.318 9.638,-25.676 l 0.435,-0.848 13.136,-18.137 2.304,0.952 c 3.238,1.356 12.52,4.964 16.55,5.465 6.773,0.849 13.636,2.076 16.634,6.784 1.74,2.726 4.817,4.696 8.217,5.266 2.956,0.49 8.62,0.138 10.557,-0.036 h 6.421 c -9.86,-10.326 -20.77,-21.254 -20.95,-21.436 l -0.436,-0.435 -0.26,-0.574 c -5.746,-13.686 -17.93,-41.266 -22.72,-47.674 -5.886,-7.855 -48.769,-50.799 -52.067,-54.107 -0.653,-0.474 -2.402,-1.808 -4.441,-3.9 -7.098,4.425 -22.807,7.176 -28.813,3.433 -2.537,-1.594 -8.267,-1.971 -13.311,-2.309 -4.385,-0.287 -8.518,-0.558 -11.347,-1.615 -1.954,-0.728 -7.183,1.395 -15.581,9.772 -2.197,2.2 -4.537,2.923 -6.856,2.923 -2.527,0 -5.011,-0.87 -7.223,-1.647 -1.034,-0.359 -2.095,-0.729 -3.186,-1.025 -0.207,0.683 -0.386,1.379 -0.505,2.109 -1.368,9.178 2.859,19.058 -3.486,26.814 z" id="_x637__x627__x631__x645_" class="area" title="طارم"></path><path fill="#fdfad6" stroke="#020202" stroke-width="0.2" stroke-miterlimit="10" d="m 176.605,254.129 c 2.816,-3.522 5.64,2.118 9.169,4.236 1.407,0.706 3.522,0 4.936,0 -0.708,-2.823 2.823,-4.942 2.118,-8.464 4.234,0 9.879,1.413 11.291,-0.709 5.645,-9.172 -2.823,-18.338 -6.35,-26.809 -2.825,-6.35 3.526,-15.516 0,-18.342 -8.473,-6.35 -28.931,-0.705 -28.931,-17.634 0,-2.118 -2.816,-5.647 -5.64,-5.647 -17.634,-0.705 -26.107,-17.634 -31.04,-33.158 -0.707,-1.407 -3.531,-4.232 -5.644,-4.938 -19.051,-7.051 -38.098,-14.813 -46.562,-34.574 -0.032,-0.05 -0.073,-0.094 -0.105,-0.152 -5.129,2.808 -12.196,4.906 -22.322,5.381 -24.439,1.159 -34.448,29.501 -36.073,34.641 1.766,5.374 11.288,34.328 15.04,43.708 4.376,10.948 14.851,48.752 16.978,59.396 0.788,3.952 1.302,9.275 1.321,14.995 2.069,0.854 7.459,2.688 12.007,1.009 2.619,-0.964 4.547,-2.972 5.891,-6.108 1.42,-3.324 3.723,-5.565 6.837,-6.649 8.486,-2.963 20.641,3.559 32.388,9.864 4.064,2.188 7.906,4.253 11.148,5.641 15.877,6.805 29.596,10.249 40.793,10.249 2.578,0 4.914,0.05 7.036,0.123 0.254,-0.452 0.518,-0.91 0.763,-1.371 4.245,-7.049 -1.404,-18.337 4.951,-24.688 z" id="_x645__x627__x647__x646__x634__x627__x646_" class="area" title="ماهنشان"></path><path fill="#dbeccb" stroke="#020202" stroke-width="0.2" stroke-miterlimit="10" d="m 217.522,252.02 c 11.284,-5.653 19.746,-4.24 28.216,4.228 1.411,0.707 4.231,0.707 4.231,0 4.232,-7.055 -4.231,-19.752 4.938,-21.163 8.464,-2.118 14.111,-3.521 21.164,-8.464 4.937,-3.531 7.757,5.639 10.581,9.875 4.236,6.352 11.995,2.118 18.341,0 2.824,-0.706 4.942,0 7.057,1.413 8.468,6.349 14.813,20.457 26.102,14.81 2.824,-2.111 3.529,-7.763 7.052,-7.763 11.998,0 16.229,-9.169 25.401,-15.512 3.529,-2.823 9.173,-0.707 13.406,-2.118 2.112,-0.705 6.346,-1.412 7.757,-4.236 4.799,-13.911 13.51,-24.879 24.347,-33.808 -0.333,-1.127 -0.227,-3.156 0.336,-4.289 2.113,-2.827 2.82,-6.35 1.411,-9.173 -2.113,-4.237 -7.763,-5.645 -12.695,-7.058 -9.186,-2.819 -9.897,-12.695 -9.897,-22.572 0,-1.41 -1.407,-3.529 -3.509,-4.941 -9.877,-5.641 -21.165,2.823 -30.334,-3.525 -6.35,-3.526 -9.877,-11.292 -16.929,-11.99 -8.472,-1.416 -22.575,5.641 -24.694,-5.653 -1.412,-11.291 5.641,-19.746 9.881,-29.627 0.706,-2.823 8.464,-2.118 10.586,-5.644 6.346,-7.767 2.118,-17.64 3.522,-26.813 0.118,-0.731 0.3,-1.43 0.508,-2.111 -0.148,-0.04 -0.294,-0.082 -0.442,-0.119 -7.446,-1.854 -10.796,-9.054 -10.796,-13.574 0,-1.395 -1.576,-4.313 -2.972,-6.369 l -12.988,-3.604 -0.6,-1.387 c -0.541,-1.274 -2.297,-5.014 -3.825,-7.054 -0.965,-0.55 -6.707,-0.729 -11.846,-0.164 l -1.093,0.124 -9.9,-6.247 c 0.033,0.04 0.078,0.069 0.099,0.115 0.83,1.533 0.254,3.439 -1.281,4.268 -1.896,1.027 -18.734,10.041 -24.554,11.494 -7.564,1.889 -13.291,4.613 -14.954,7.092 -2.919,4.377 -13.222,16.411 -25.676,19.527 -12.216,3.066 -25.687,0 -38.946,-8.847 -11.278,-7.519 -28.371,5.341 -31.057,8.013 -4.941,4.942 -30.025,16.428 -37.656,18.972 -7.897,2.636 -14.556,6.626 -19.784,11.854 -0.952,0.945 -1.864,2.457 -2.923,4.204 -2.554,4.22 -5.887,9.726 -13.268,13.752 0.042,0.057 0.083,0.105 0.112,0.155 8.464,19.752 27.508,27.518 46.559,34.57 2.114,0.706 4.938,3.529 5.646,4.938 4.933,15.52 13.401,32.457 31.04,33.162 2.827,0 5.644,3.526 5.644,5.645 0,16.924 20.454,11.291 28.922,17.63 3.531,2.823 -2.816,11.999 0,18.345 3.427,8.229 11.525,17.129 6.777,26.048 3.96,3.804 8.467,6.288 12.983,3.591 z" id="_x632__x646__x62C__x627__x646_" class="area" title="زنجان"></path><path fill="#fbd1d1" stroke="#020202" stroke-width="0.2" stroke-miterlimit="10" d="m 425.634,377.592 c -0.707,-2.827 -1.413,-4.945 -2.118,-7.766 -2.118,-9.17 7.051,-22.572 -3.531,-26.809 -6.366,-2.117 -12.699,-4.937 -15.516,-10.586 -2.823,-5.639 -7.762,-9.17 -11.301,-14.103 -3.509,-4.938 1.434,-8.474 2.115,-12.701 2.84,-10.582 -15.501,-15.516 -25.393,-20.454 -8.468,-4.232 -14.111,-12.7 -22.576,-18.345 -2.823,-1.407 -7.053,-2.819 -9.175,-0.705 -11.292,8.472 -22.572,14.111 -34.569,21.163 -9.175,5.649 -15.518,14.113 -16.223,26.106 -0.705,2.82 -4.938,4.938 -9.17,6.346 -0.707,0 -2.121,2.119 -2.121,3.531 -0.708,14.108 -9.172,33.158 -22.572,23.987 -14.108,-9.879 -26.1,-7.763 -40.917,-8.468 -4.33,-0.209 -8.543,-1.021 -12.676,-2.258 1.876,5.341 4.261,14.527 1.428,21.033 -1.358,3.104 -3.796,5.324 -7.063,6.408 -11.584,3.862 -12.548,9.157 -12.548,13.825 0,1.628 -0.398,3.895 -0.896,6.764 -1.08,6.165 -2.869,16.461 0.25,20.162 0.518,0.615 1.478,1.438 3.797,1.438 2.352,0 4.375,-0.059 6.134,-0.096 10.093,-0.267 13.7,0.182 15.864,11.041 2.283,11.387 4.068,16.375 11.628,16.375 9.716,0 22.437,1.707 27.84,9.811 3.735,5.606 16.013,23.163 18.446,26.655 2.894,1.536 15.901,8.022 31.82,9.786 11.332,1.271 18.484,6.708 24.237,11.079 4.204,3.193 7.518,5.718 11.146,5.718 2.955,0 6.322,-1.035 9.888,-2.119 7.812,-2.396 17.545,-5.384 25.967,3.047 3.571,3.571 7.659,5.098 11.807,4.425 4.343,-0.698 8.448,-3.769 10.468,-7.808 1.246,-2.495 0.271,-4.116 -2.85,-8.135 -2.627,-3.391 -5.887,-7.602 -5.887,-13.571 0,-3.219 0.032,-6.484 0.141,-9.723 -0.125,-0.457 -0.174,-0.949 -0.075,-1.446 0.025,-0.109 0.095,-0.191 0.128,-0.296 0.57,-14.57 2.609,-28.379 9.129,-34.898 l 35.005,-35.004 0.296,0.093 c 0.668,-4.5 0.865,-9.006 -0.357,-13.502 z" id="_x62E__x62F__x627__x628__x646__x62F__x647_" class="area" title="خدابنده"></path><path fill="#e8d0e5" stroke="#020202" stroke-width="0.2" stroke-miterlimit="10" d="m 336.393,253.439 c -10.206,3.433 -16.331,-9.531 -24.347,-15.535 -2.113,-1.413 -4.231,-2.118 -7.056,-1.413 -6.351,2.118 -14.101,6.35 -18.341,0 -2.823,-4.232 -5.644,-13.402 -10.582,-9.881 -7.056,4.942 -12.699,6.355 -21.163,8.465 -9.176,1.416 -0.707,14.111 -4.938,21.164 0,0.706 -2.824,0.706 -4.237,0 -8.464,-8.464 -16.928,-9.876 -28.216,-4.227 -4.507,2.704 -9.018,0.221 -12.979,-3.585 -0.132,0.251 -0.267,0.505 -0.428,0.759 -1.411,2.118 -7.051,0.707 -11.288,0.707 0.706,3.529 -2.823,5.639 -2.118,8.465 -1.416,0 -3.529,0.705 -4.938,0 -3.529,-2.119 -6.353,-7.759 -9.169,-4.229 -6.359,6.352 -0.71,17.636 -4.946,24.687 -0.246,0.464 -0.51,0.919 -0.764,1.375 7.923,0.299 12.635,1.039 13.866,1.449 3.305,1.093 6.461,10.655 6.494,10.754 0.518,1.716 2.248,5.834 3.292,8.289 0.6,1.431 1.051,2.515 1.149,2.811 0.229,0.694 0.435,1.789 0.435,7.406 0,0.258 0.024,0.696 0.05,1.252 0.172,3.529 0.291,7.539 -0.428,10.418 -0.524,2.1 1.183,7.872 2.102,9.149 l 0.386,0.636 c 0.214,0.468 0.896,2.007 1.663,4.178 4.126,1.236 8.337,2.049 12.676,2.258 14.817,0.705 26.809,-1.411 40.917,8.468 13.4,9.171 21.864,-9.879 22.572,-23.987 0,-1.412 1.414,-3.531 2.121,-3.531 4.231,-1.407 8.465,-3.525 9.17,-6.346 0.705,-11.993 7.057,-20.457 16.223,-26.106 11.997,-7.052 23.281,-12.699 34.569,-21.163 0.218,-0.207 0.448,-0.378 0.698,-0.518 0.405,-4.295 -0.073,-8.474 -2.445,-12.169 z" id="_x627__x6CC__x62C__x631__x648__x62F_" class="area active" title="ایجرود"></path><path fill="#e8d0e5" stroke="#020202" stroke-width="0.2" stroke-miterlimit="10" d="m 475.72,286.581 c -2.823,6.35 -14.113,10.583 -10.599,16.929 2.118,4.935 10.599,8.468 7.779,15.516 -0.708,2.118 -4.254,2.118 -6.368,1.412 -7.055,-2.819 -14.797,-7.758 -23.281,-6.346 -8.464,2.115 -7.759,9.875 -9.877,16.929 -0.705,0.705 -2.116,2.118 -2.824,2.823 -3.525,6.346 2.119,11.288 7.763,9.17 2.82,-0.705 4.938,-3.525 7.782,-4.231 10.583,-1.412 19.732,0 29.629,-6.351 2.82,-2.824 7.052,0.707 10.583,2.118 6.346,2.82 11.301,-4.235 13.4,-8.464 4.232,-9.178 2.114,-18.349 4.938,-27.522 0,-2.114 -4.231,-5.64 -5.641,-8.464 -1.411,-3.525 0.702,-6.35 3.522,-8.468 4.446,-2.5 8.443,-5.666 11.97,-9.301 -0.574,-0.264 -1.138,-0.526 -1.731,-0.79 -7.438,-3.406 -15.115,-6.92 -23.669,-8.345 l -2.036,-0.331 c -4.975,-0.813 -10.417,-1.709 -15.613,-3.244 -0.207,1.047 -0.436,2.045 -0.662,2.968 -2.125,9.179 8.461,15.528 4.935,23.992 z" id="_x62E__x631__x645__x62F__x631__x647_" class="area" title="خرمدره"></path><path fill="#fdfad6" stroke="#020202" stroke-width="0.2" stroke-miterlimit="10" d="m 412.248,297.66 c 4,-9 9,-19 12,-29 4,-11 15,-9 27,-12 2.741,-0.686 4.645,-2.203 5.943,-4.17 -2.462,-2.093 -4.566,-4.642 -6.146,-7.785 -5.521,-11.041 -11.699,-30.499 -6.108,-38.888 0.731,-1.094 1.625,-2.887 2.61,-5.091 -4.433,-3.653 -5.968,-10.14 -11.354,-11.485 -6.354,-2.118 -13.397,6.346 -19.756,0.702 -0.119,-0.139 -0.25,-0.365 -0.336,-0.648 -10.829,8.928 -19.538,19.896 -24.342,33.811 -1.413,2.816 -5.647,3.521 -7.762,4.228 -4.237,1.412 -9.881,-0.706 -13.403,2.118 -9.173,6.352 -13.406,15.518 -25.399,15.518 -3.521,0 -4.228,5.647 -7.057,7.766 -0.6,0.296 -1.177,0.533 -1.757,0.722 2.369,3.699 2.854,7.864 2.455,12.163 2.254,-1.311 5.937,-0.045 8.477,1.223 8.465,5.651 14.108,14.108 22.576,18.345 9.875,4.938 28.216,9.876 25.393,20.458 -0.36,2.171 -1.832,4.158 -2.708,6.243 8.155,-1.223 15.694,-6.268 19.674,-14.23 z" id="_x633__x644__x637__x627__x646__x6CC__x647_" class="area" title="سلطانیه"></path><path fill="#dbeccb" stroke="#020202" stroke-width="0.2" stroke-miterlimit="10" d="m 538.202,295.941 -1.137,-3.325 c -2.883,-8.654 -7.644,-14.048 -14.991,-16.986 -2.521,-1.002 -5.012,-2.129 -7.577,-3.284 -3.526,3.633 -7.523,6.799 -11.97,9.303 -2.82,2.116 -4.934,4.937 -3.522,8.464 1.409,2.824 5.641,6.35 5.641,8.465 -2.824,9.177 -0.706,18.343 -4.938,27.518 -2.113,4.228 -7.075,11.288 -13.4,8.468 -3.531,-1.417 -7.763,-4.946 -10.583,-2.122 -9.896,6.354 -19.046,4.942 -29.629,6.354 -2.844,0.707 -4.962,3.527 -7.782,4.232 -5.644,2.118 -11.288,-2.823 -7.763,-9.175 0.708,-0.706 2.119,-2.116 2.824,-2.824 2.118,-7.051 1.413,-14.81 9.877,-16.923 8.484,-1.412 16.227,3.526 23.281,6.346 2.114,0.706 5.66,0.706 6.368,-1.412 2.823,-7.052 -5.661,-10.586 -7.779,-15.512 -3.531,-6.355 7.779,-10.586 10.599,-16.933 3.526,-8.467 -7.076,-14.813 -4.941,-23.984 0.229,-0.92 0.438,-1.921 0.644,-2.967 -5.233,-1.543 -10.211,-3.736 -14.23,-7.152 -1.299,1.967 -3.202,3.484 -5.943,4.17 -12,3 -23,1 -27,12 -3,10 -8,20 -12,29 -3.98,7.962 -11.52,13.007 -19.673,14.228 -0.833,1.98 -1.13,4.05 0.586,6.452 3.538,4.938 8.475,8.47 11.301,14.107 2.818,5.645 9.169,8.465 15.512,10.583 10.586,4.236 1.414,17.639 3.532,26.809 0.708,2.82 1.413,4.938 2.119,7.763 1.223,4.498 1.026,9.009 0.369,13.512 l 1.552,0.51 c 0.263,0.094 7.011,2.409 19.929,13.18 8.35,6.966 16.239,10.619 21.562,9.979 2.267,-0.267 4.039,-1.288 5.427,-3.146 1.541,-2.067 2.714,-4.498 3.94,-7.067 3.481,-7.291 7.438,-15.549 21.304,-17.285 17.076,-2.139 31.55,-10.5 33.056,-16.556 0.616,-2.511 1.983,-7.001 3.544,-12.19 3.579,-11.895 8.981,-29.87 8.981,-35.375 0.007,-6.694 -4.609,-20.051 -7.09,-27.225 z" id="_x627__x628__x647__x631_" class="area" title="ابهر"></path><line fill="none" stroke="#040404" stroke-width="0.5" stroke-miterlimit="10" x1="484.311" y1="305.94699" x2="509.74799" y2="231.66" id="line164" class="area" title=""></line>
<text xml:space="preserve" style="font-style:normal;font-weight:normal;font-size:17.3333px;line-height:1.25;font-family:sans-serif;fill:#000000;fill-opacity:1;stroke:none" x="236.56367" y="149.15862" id="text1570" class="area" title=""><tspan sodipodi:role="line" id="tspan1568" x="236.56367" y="149.15862" style="font-style:normal;font-variant:normal;font-weight:normal;font-stretch:normal;font-size:17.3333px;font-family:'B Yekan';-inkscape-font-specification:'B Yekan'">زنجان</tspan></text><text xml:space="preserve" style="font-style:normal;font-weight:normal;font-size:17.3333px;line-height:1.25;font-family:sans-serif;fill:#000000;fill-opacity:1;stroke:none" x="229.36214" y="288.42847" id="text1570-5" class="area" title=""><tspan sodipodi:role="line" id="tspan1568-8" x="229.36214" y="288.42847" style="font-style:normal;font-variant:normal;font-weight:normal;font-stretch:normal;font-size:17.3333px;font-family:'B Yekan';-inkscape-font-specification:'B Yekan'">ایجرود</tspan></text><text xml:space="preserve" style="font-style:normal;font-weight:normal;font-size:17.3333px;line-height:1.25;font-family:sans-serif;fill:#000000;fill-opacity:1;stroke:none" x="82.920876" y="202.1868" id="text1570-7" class="area" title=""><tspan sodipodi:role="line" id="tspan1568-1" x="82.920876" y="202.1868" style="font-style:normal;font-variant:normal;font-weight:normal;font-stretch:normal;font-size:17.3333px;font-family:'B Yekan';-inkscape-font-specification:'B Yekan'">ماهنشان</tspan></text><text xml:space="preserve" style="font-style:normal;font-weight:normal;font-size:17.3333px;line-height:1.25;font-family:sans-serif;fill:#000000;fill-opacity:1;stroke:none" x="378.4368" y="249.13904" id="text1570-4" class="area" title=""><tspan sodipodi:role="line" id="tspan1568-9" x="378.4368" y="249.13904" style="font-style:normal;font-variant:normal;font-weight:normal;font-stretch:normal;font-size:17.3333px;font-family:'B Yekan';-inkscape-font-specification:'B Yekan'">سلطانیه</tspan></text><text xml:space="preserve" style="font-style:normal;font-weight:normal;font-size:17.3333px;line-height:1.25;font-family:sans-serif;fill:#000000;fill-opacity:1;stroke:none" x="483.88788" y="360.01279" id="text1570-2" class="area" title=""><tspan sodipodi:role="line" id="tspan1568-91" x="483.88788" y="360.01279" style="font-style:normal;font-variant:normal;font-weight:normal;font-stretch:normal;font-size:17.3333px;font-family:'B Yekan';-inkscape-font-specification:'B Yekan'">ابهر</tspan></text><text xml:space="preserve" style="font-style:normal;font-weight:normal;font-size:17.3333px;line-height:1.25;font-family:sans-serif;fill:#000000;fill-opacity:1;stroke:none" x="488.41599" y="220.6442" id="text1570-2-7" class="area" title=""><tspan sodipodi:role="line" id="tspan1568-91-5" x="488.41599" y="220.6442" style="font-style:normal;font-variant:normal;font-weight:normal;font-stretch:normal;font-size:17.3333px;font-family:'B Yekan';-inkscape-font-specification:'B Yekan'">خرمدره</tspan></text><text xml:space="preserve" style="font-style:normal;font-weight:normal;font-size:17.3333px;line-height:1.25;font-family:sans-serif;fill:#000000;fill-opacity:1;stroke:none" x="288.23148" y="399.87912" id="text1570-2-2" class="area" title=""><tspan sodipodi:role="line" id="tspan1568-91-4" x="288.23148" y="399.87912" style="font-style:normal;font-variant:normal;font-weight:normal;font-stretch:normal;font-size:17.3333px;font-family:'B Yekan';-inkscape-font-specification:'B Yekan'">خدابنده</tspan></text><text xml:space="preserve" style="font-style:normal;font-weight:normal;font-size:17.3333px;line-height:1.25;font-family:sans-serif;fill:#000000;fill-opacity:1;stroke:none" x="402.66022" y="106.78853" id="text1570-2-4" class="area" title=""><tspan sodipodi:role="line" id="tspan1568-91-8" x="402.66022" y="106.78853" style="font-style:normal;font-variant:normal;font-weight:normal;font-stretch:normal;font-size:17.3333px;font-family:'B Yekan';-inkscape-font-specification:'B Yekan'">طارم</tspan></text></svg>
